<?xml version="1.0" encoding="utf-8"?><svg viewBox="0 0 193 60" xmlns="http://www.w3.org/2000/svg" xmlns:xlink="http://www.w3.org/1999/xlink"><style>:root>svg{display:none}:root>svg:target{display:block}</style><svg fill="none" viewBox="0 0 12 12" id="arrow_footer" xmlns="http://www.w3.org/2000/svg"><path d="M11.5 1a.5.5 0 00-.5-.5H6.5a.5.5 0 000 1h4v4a.5.5 0 001 0V1zM1.354 11.354l10-10-.708-.708-10 10 .708.708z" fill="#000"/></svg><svg fill="none" viewBox="0 0 18 22" id="bag" xmlns="http://www.w3.org/2000/svg"><path fill-rule="evenodd" clip-rule="evenodd" d="M5.155 5.583a3.918 3.918 0 017.69 0h-7.69zm-1.52 0a5.418 5.418 0 0110.73 0h2.802a.75.75 0 01.75.75v14a.75.75 0 01-.75.75H.833a.75.75 0 01-.75-.75v-14a.75.75 0 01.75-.75h2.802zm10.032 1.5H1.583v12.5h14.834v-12.5h-2.75z" fill="#fff"/></svg><svg fill="none" viewBox="0 0 57 30" id="logo_pult" xmlns="http://www.w3.org/2000/svg"><path d="M28.724 26.184l11.496 3.797V0L28.724 3.796v22.389z" fill="#4CC7E9"/><path d="M0 11.405h1.971v1.125c.237-.396.57-.723.967-.95a2.618 2.618 0 011.303-.343c1.74 0 3.08 1.31 3.08 3.678v.118c0 2.368-1.324 3.712-3.08 3.712a2.5 2.5 0 01-1.303-.306 2.544 2.544 0 01-.967-.937v3.544H0v-9.641zm5.317 3.644v-.117c0-1.462-.71-2.167-1.69-2.167-1.026 0-1.74.72-1.74 2.166v.118c0 1.445.68 2.15 1.74 2.15 1.094-.017 1.69-.756 1.69-2.15zM8.382 16.04v-4.635h1.954v4.35c0 .974.398 1.444 1.226 1.444.829 0 1.475-.52 1.475-1.579v-4.215h1.954v7.188h-1.938v-1.125a2.37 2.37 0 01-.938.98c-.4.226-.858.33-1.315.296-1.392 0-2.418-.823-2.418-2.704zM16.498 8.146h1.955v10.43H16.5V8.146zM20.21 16.46v-3.645h-.912v-1.41h.911V9.859h1.955v1.546h1.49v1.41h-1.49v3.46c0 .571.281.857.778.857.256.01.51-.036.746-.135v1.547a3.408 3.408 0 01-1.193.185c-1.474-.002-2.286-.774-2.286-2.27zM45.338 11.404h1.971v1.378c.182-.457.5-.845.91-1.11.41-.265.891-.394 1.376-.368v1.847c-1.457-.017-2.286.47-2.286 1.847v3.595h-1.97v-7.189zM50.39 16.04v-4.635h1.955v4.35c0 .974.398 1.444 1.226 1.444s1.474-.52 1.474-1.579v-4.215H57v7.188h-1.955v-1.125a2.37 2.37 0 01-.939.98c-.4.226-.857.33-1.314.296-1.375 0-2.402-.823-2.402-2.704z" fill="#343741"/></svg><svg fill="none" viewBox="0 0 30 30" id="logo_svs" xmlns="http://www.w3.org/2000/svg"><path d="M0 30h30V0H0v30zm21.127-8.418h4.81c.411.023.798.198 1.086.492.15.15.259.336.312.542.013.083.034.166.062.246h-7.751c.125-.854.625-1.272 1.476-1.272l.005-.008zm-17.23.008h4.811c.41.021.797.197 1.083.492.152.148.26.335.312.541.014.084.035.166.064.246h-7.75c.145-.854.624-1.272 1.476-1.272l.005-.007zm4.83 5.883H4.356c-.834 0-1.375-.167-1.626-.458a1.172 1.172 0 01-.332-.812h5.56c.313 0 .48-.167.48-.521 0-.355-.145-.492-.457-.492H3.895c-.873 0-1.375-.458-1.476-1.356H8.75c1.04 0 1.585.585 1.563 1.771 0 1.25-.522 1.875-1.583 1.875l-.002-.007zm1.585-5.805h2.146l.69 1.189H11.02l-.709-1.189zm5.854 5.729H13.75l-2.146-3.585h2.126l1.167 2h.125l1.167-2h2.125l-2.148 3.585zm.584-4.555l.689-1.188h2.145l-.709 1.188H16.75zm9.21 4.623h-4.398c-.831 0-1.373-.167-1.623-.457a1.177 1.177 0 01-.335-.812h5.585c.313 0 .478-.168.478-.522s-.145-.492-.458-.492h-4.062c-.876 0-1.376-.458-1.477-1.356h6.334c1.04 0 1.562.586 1.562 1.772-.041 1.25-.563 1.875-1.604 1.875" fill="#366BB0"/></svg><svg fill="none" viewBox="0 0 193 60" id="nazarov_logo_header" xmlns="http://www.w3.org/2000/svg"><g clip-path="url(#eclip0)" fill="#A89365"><path fill-rule="evenodd" clip-rule="evenodd" d="M92.157 15.405v4.703h4.021L88.78 36.811h-3.378v4.702h11.34v-4.702h-2.976l.965-2.027h8.041l.965 2.027h-2.975v4.702h13.349v-4.702h-2.654l-9.891-21.406h-9.409zm6.675 10.054l2.01 4.703h-4.02l2.01-4.703zM39.002 15.405v4.703h4.021l-7.318 16.703h-3.377v4.702h11.338v-4.702h-2.975l.965-2.027h8.042l.965 2.027h-2.976v4.702h13.43v-4.702h-2.654L48.331 15.405h-9.329zm6.675 10.054l2.01 4.703h-4.02l2.01-4.703z"/><path d="M0 15.405v4.703h2.654v16.703H0v4.702h12.706v-4.702h-2.654v-6.73h9.328v6.73h-2.653v4.702h12.706v-4.702h-2.654V20.108h2.654v-4.703H16.727v4.703h2.653v5.351h-9.328v-5.351h2.654v-4.703H0z"/><path fill-rule="evenodd" clip-rule="evenodd" d="M116.443 15.405v4.703h4.021v10.054h-4.021v4.703h4.021v2.027h-4.021v4.702h14.073v-4.702h-3.377v-2.027h11.339v-4.703h-2.011c2.011-1.297 3.297-3.567 3.378-6 0-4.703-4.665-8.676-7.399-8.676l-16.003-.08zm10.696 12.73v-8.027s4.021 0 4.021 4.054-4.021 3.973-4.021 3.973z"/><path d="M62.564 15.405l3.378 7.379h4.664l-1.367-2.676h4.744s2.01 0 2.01 2.676c0 2.675-2.01 2.675-2.01 2.675h-6.675l2.333 4.703h4.342s2.01 0 2.01 3.324c0 3.325-2.01 3.325-2.01 3.325H69.32l1.367-2.676h-4.745l-3.377 7.378h15.44c2.975-.162 5.468-2.351 6.031-5.351a8.196 8.196 0 00-2.653-8.351s3.377-1.703 2.01-6.325c-.724-2.756-2.734-4.946-5.388-6h-15.44v-.08z"/><path fill-rule="evenodd" clip-rule="evenodd" d="M172.252 20.108V36.81h-3.377v4.702h16.727c2.01 0 7.398-2.675 7.398-8.027 0-5.351-2.975-6-2.975-6 1.367-1.702 2.01-3.892 1.688-6-.643-3.324-4.021-6-6.031-6h-16.807v4.703h3.377v-.081zm7.399 5.351v-5.351h1.367s3.377 0 3.377 2.676c0 2.675-3.377 2.675-3.377 2.675h-1.367zm0 11.352v-6.73h1.367c1.85 0 3.297 1.46 3.297 3.324 0 1.865-1.447 3.325-3.297 3.325l-1.367.08zM154.883 42.162c-3.378 0-12.706 0-12.706-13.378 0-13.379 9.328-13.379 12.706-13.379 3.377 0 12.705 0 12.705 13.379 0 13.378-9.408 13.378-12.705 13.378zm5.307-13.378c0 7.378-3.377 8.675-5.388 8.675-2.01 0-4.664-1.378-4.664-8.675 0-7.298 2.654-8.676 4.664-8.676 2.011 0 5.388 1.297 5.388 8.676z"/><path d="M99.556 11.351h4.664L113.629 0h-8.685l-5.388 11.351zM.643 51.712v-1.054c.563-.243 1.126-.325 1.69-.325 1.045 0 1.93.325 2.492.974.563.648.885 1.459.885 2.432 0 .973-.322 1.784-.965 2.432-.644.649-1.448.973-2.413.973-.643 0-1.206-.08-1.769-.324v-1.054a3.421 3.421 0 001.77.486c.562 0 1.125-.162 1.527-.567.402-.406.643-.811.724-1.46H1.206v-.973h3.378c-.161-.567-.402-.973-.804-1.297-.402-.324-.885-.486-1.448-.486-.482-.244-1.126-.081-1.689.243zM12.626 50.415v6.405H11.5v-5.351H9.248v2.919c0 .81-.16 1.459-.482 1.864-.402.406-.885.568-1.528.568h-.322v-1.054h.241c.322 0 .644-.162.804-.405.161-.244.242-.568.242-1.055v-3.891h4.423zM19.702 54.712l.885.486a5.2 5.2 0 01-.805 1.054c-.563.487-1.286.811-2.09.811-.885 0-1.609-.243-2.172-.81-.643-.568-.884-1.379-.884-2.514 0-.973.241-1.784.804-2.432.563-.65 1.287-.974 2.252-.974 1.045 0 1.85.406 2.412 1.136.402.648.643 1.378.563 2.432h-4.905c0 .649.24 1.135.563 1.54.402.406.884.568 1.447.568.483 0 .965-.162 1.287-.486.24-.244.482-.487.643-.811zm-3.94-1.784h3.699a2.236 2.236 0 00-.644-1.216c-.321-.325-.723-.487-1.206-.487-.482 0-.884.163-1.206.487-.322.324-.563.73-.643 1.216zM22.678 50.415h1.125v2.594l2.574-2.594h1.367l-2.734 2.837 3.055 3.568h-1.527l-2.493-2.838-.322.324v2.514h-1.126v-6.405h.08zM33.534 51.469h-2.01v5.351h-1.126v-5.351h-2.01v-1.054h5.065v1.054h.08zM36.107 55.928v4.46h-1.126v-9.973h1.126v.892c.563-.73 1.287-1.055 2.172-1.055.964 0 1.688.325 2.251.973.563.65.804 1.46.804 2.352 0 .892-.24 1.703-.804 2.351-.563.649-1.287.973-2.252.973-.884.081-1.608-.243-2.17-.973zm2.091.081c.643 0 1.126-.243 1.528-.648.402-.487.563-1.054.563-1.703 0-.73-.241-1.297-.643-1.784-.403-.405-.885-.649-1.448-.649s-1.045.244-1.447.65c-.402.404-.644.972-.644 1.702 0 .648.161 1.216.563 1.703.402.486.885.73 1.528.73zM48.732 56.09c-.643.649-1.447.973-2.412.973-.965 0-1.77-.324-2.413-.973-.643-.648-.965-1.46-.965-2.432 0-.973.322-1.784.965-2.433.644-.648 1.448-.973 2.413-.973.965 0 1.77.325 2.412.973.644.65.965 1.46.965 2.433 0 .973-.321 1.784-.965 2.432zm-.804-4.216a2.236 2.236 0 00-1.608-.649c-.643 0-1.126.244-1.608.65-.403.404-.644.972-.644 1.783 0 .81.242 1.297.644 1.703.402.405.965.648 1.608.648.643 0 1.126-.243 1.608-.648.402-.406.644-.973.644-1.703 0-.73-.242-1.379-.644-1.784zM51.708 56.82v-6.405h1.126v2.594h2.975v-2.594h1.126v6.405H55.81v-2.757h-2.975v2.757h-1.126zM59.267 50.415h1.126v4.216l4.342-4.703v6.892H63.61v-4.297l-4.343 4.702v-6.81zM67.067 50.415h1.126v2.594l2.574-2.594h1.367L69.4 53.252l3.055 3.568h-1.447l-2.493-2.838-.322.324v2.514h-1.126v-6.405zM78.647 51.306v-.891h1.126v6.405h-1.126v-.892c-.562.73-1.286 1.054-2.17 1.054-.885 0-1.61-.324-2.172-.892-.563-.567-.885-1.46-.885-2.513 0-1.054.322-1.865.885-2.433.563-.567 1.287-.892 2.171-.892.965 0 1.689.406 2.171 1.054zm-2.01-.08c-.563 0-1.045.243-1.447.648-.403.405-.644.973-.644 1.703 0 .73.161 1.297.563 1.703.402.405.885.648 1.528.648s1.126-.243 1.528-.73c.402-.486.563-1.054.563-1.702 0-.73-.241-1.379-.643-1.784-.402-.243-.885-.487-1.448-.487zM86.046 50.415h1.126v4.216l4.342-4.703v6.892h-1.126v-4.297l-4.342 4.702v-6.81zM102.612 51.306v-.891h1.126v6.405h-1.126v-.892c-.563.73-1.287 1.054-2.171 1.054-.885 0-1.609-.324-2.172-.892-.563-.567-.884-1.46-.884-2.513 0-1.054.321-1.865.884-2.433a3.095 3.095 0 012.172-.892c.884 0 1.608.406 2.171 1.054zm-2.091-.08c-.563 0-1.045.243-1.448.648-.402.405-.643.973-.643 1.703 0 .73.161 1.297.563 1.703.402.405.885.648 1.528.648s1.126-.243 1.528-.73c.402-.486.563-1.054.563-1.702 0-.73-.241-1.379-.643-1.784-.403-.243-.885-.487-1.448-.487zM106.07 50.415h2.412c.563 0 1.046.162 1.367.405.402.324.563.73.563 1.216 0 .568-.241.973-.723 1.297.321.082.562.244.804.406.321.324.482.73.482 1.216 0 .649-.241 1.135-.643 1.46-.402.324-.885.405-1.528.405h-2.734v-6.405zm1.126 2.594h1.125c.322 0 .563-.08.724-.162.241-.162.322-.405.322-.649 0-.243-.081-.486-.322-.648-.161-.081-.482-.162-.884-.162h-.965v1.621zm0 2.838h1.367c.482 0 .804-.081.965-.243a.853.853 0 00.402-.73c0-.324-.081-.568-.322-.73-.161-.162-.563-.243-.965-.243h-1.367v1.946h-.08zM117.087 51.469h-2.011v5.351h-1.126v-5.351h-2.01v-1.054h5.066v1.054h.081zM123.761 56.09c-.643.649-1.447.973-2.412.973-.965 0-1.769-.324-2.413-.973-.643-.648-.965-1.46-.965-2.432 0-.973.322-1.784.965-2.433.644-.648 1.448-.973 2.413-.973.965 0 1.769.325 2.412.973.644.65.965 1.46.965 2.433 0 .973-.321 1.784-.965 2.432zm-.804-4.216a2.235 2.235 0 00-1.608-.649c-.644 0-1.126.244-1.609.65-.402.404-.643.972-.643 1.783 0 .81.241 1.297.643 1.703.402.405.965.648 1.609.648.643 0 1.126-.243 1.608-.648.402-.406.643-.973.643-1.703 0-.73-.241-1.379-.643-1.784zM126.013 56.82l1.528-6.892 2.654 5.19 2.573-5.19 1.528 6.892h-1.126l-.804-3.973-2.171 4.378-2.171-4.378-.805 3.973h-1.206zM140.729 51.306v-.891h1.126v6.405h-1.126v-.892c-.563.73-1.287 1.054-2.171 1.054-.885 0-1.609-.324-2.171-.892-.563-.567-.885-1.46-.885-2.513 0-1.054.322-1.865.885-2.433a3.092 3.092 0 012.171-.892c.965 0 1.689.406 2.171 1.054zm-2.01-.08c-.563 0-1.046.243-1.448.648-.402.405-.643.973-.643 1.703 0 .73.161 1.297.563 1.703.402.405.884.648 1.528.648.643 0 1.125-.243 1.528-.73.402-.486.562-1.054.562-1.702 0-.73-.241-1.379-.643-1.784-.402-.243-.884-.487-1.447-.487zM148.369 51.469h-2.011v5.351h-1.125v-5.351h-2.011v-1.054h5.066v1.054h.081zM149.816 50.415h1.126v4.216l4.343-4.703v6.892h-1.126v-4.297l-4.343 4.702v-6.81zM158.501 52.036l-.723-.648c.241-.325.482-.65.804-.811.402-.243.884-.325 1.367-.325.643 0 1.126.163 1.528.487.402.324.563.73.563 1.216 0 .568-.241 1.054-.724 1.379.322.08.563.243.724.405.321.324.482.73.482 1.135 0 .649-.241 1.216-.804 1.622-.482.324-1.045.486-1.769.486-.643 0-1.206-.162-1.689-.567a2.638 2.638 0 01-.804-1.054l.965-.406c.08.325.322.568.563.73.322.243.643.324 1.045.324.483 0 .805-.08 1.046-.243.321-.162.482-.486.482-.892a.854.854 0 00-.402-.73c-.241-.162-.563-.243-1.045-.243h-.644v-1.054h.563c.402 0 .644-.081.805-.162.241-.162.321-.325.321-.568 0-.324-.08-.486-.241-.648-.161-.163-.483-.244-.804-.244-.322 0-.644.081-.885.244-.402.162-.563.405-.724.567zM169.277 51.306v-.891h1.126v6.405h-1.126v-.892c-.563.73-1.286 1.054-2.171 1.054-.884 0-1.608-.324-2.171-.892-.563-.567-.885-1.378-.885-2.513 0-1.054.322-1.865.885-2.433.563-.567 1.287-.892 2.171-.892.965 0 1.689.406 2.171 1.054zm-2.01-.08c-.563 0-1.045.243-1.448.648-.402.405-.643.973-.643 1.703 0 .73.161 1.297.563 1.703.402.405.885.648 1.528.648s1.126-.243 1.528-.73c.402-.486.563-1.054.563-1.702 0-.73-.241-1.379-.644-1.784-.402-.243-.884-.487-1.447-.487zM172.735 56.82v-6.405h1.126v5.35h2.814v-5.35h1.126v5.35h1.046v2.677h-1.046V56.82h-5.066zM180.294 50.415h1.126v4.216l4.343-4.703v6.892h-1.126v-4.297l-4.343 4.702v-6.81zM187.371 56.82l2.011-2.595h-.242c-.08 0-.241-.08-.482-.162-.241-.08-.402-.162-.483-.324-.321-.324-.482-.73-.482-1.297 0-.568.161-1.054.563-1.46.402-.324.965-.567 1.849-.567h2.252v6.405h-1.126v-2.595h-.643l-1.769 2.595h-1.448zm3.86-3.486v-1.947h-1.045c-.483 0-.805.082-.965.163-.242.162-.402.405-.402.81 0 .406.16.568.402.811.16.163.482.163.965.163h1.045z"/></g><defs><clipPath id="eclip0"><path fill="#fff" d="M0 0h193v60H0z"/></clipPath></defs></svg></svg>