<svg width="30" height="30" fill="none" xmlns="http://www.w3.org/2000/svg"><path d="M0 30h30V0H0v30zm21.127-8.418h4.81c.411.023.798.198 1.086.492.15.15.259.336.312.542.013.083.034.166.062.246h-7.751c.125-.854.625-1.272 1.476-1.272l.005-.008zm-17.23.008h4.811c.41.021.797.197 1.083.492.152.148.26.335.312.541.014.084.035.166.064.246h-7.75c.145-.854.624-1.272 1.476-1.272l.005-.007zm4.83 5.883H4.356c-.834 0-1.375-.167-1.626-.458a1.172 1.172 0 01-.332-.812h5.56c.313 0 .48-.167.48-.521 0-.355-.145-.492-.457-.492H3.895c-.873 0-1.375-.458-1.476-1.356H8.75c1.04 0 1.585.585 1.563 1.771 0 1.25-.522 1.875-1.583 1.875l-.002-.007zm1.585-5.805h2.146l.69 1.189H11.02l-.709-1.189zm5.854 5.729H13.75l-2.146-3.585h2.126l1.167 2h.125l1.167-2h2.125l-2.148 3.585zm.584-4.555l.689-1.188h2.145l-.709 1.188H16.75zm9.21 4.623h-4.398c-.831 0-1.373-.167-1.623-.457a1.177 1.177 0 01-.335-.812h5.585c.313 0 .478-.168.478-.522s-.145-.492-.458-.492h-4.062c-.876 0-1.376-.458-1.477-1.356h6.334c1.04 0 1.562.586 1.562 1.772-.041 1.25-.563 1.875-1.604 1.875" fill="#366BB0"/></svg>