<svg width="60" height="60" viewBox="0 0 60 60" fill="none" xmlns="http://www.w3.org/2000/svg">
<path fill-rule="evenodd" clip-rule="evenodd" d="M30 0C13.4315 0 0 13.4315 0 30C0 46.5685 13.4315 60 30 60C46.5685 60 60 46.5685 60 30C60 22.0435 56.8393 14.4129 51.2132 8.7868C45.5871 3.16071 37.9565 0 30 0ZM33.127 31.318V47.639H26.374V31.318H23V25.694H26.374V22.317C26.374 17.729 28.279 15 33.692 15H38.2V20.625H35.381C33.274 20.625 33.135 21.411 33.135 22.878L33.127 25.693H38.227L37.627 31.318H33.127Z" fill="white"/>
</svg>
