<svg width="72" height="56" fill="none" xmlns="http://www.w3.org/2000/svg"><path fill-rule="evenodd" clip-rule="evenodd" d="M72 6v44a6 6 0 01-6 6H6a6 6 0 01-6-6V6a6 6 0 016-6h60a6 6 0 016 6zM20.663 26.428l-3.225 10.481h-3.97L10.24 26.422a.364.364 0 00-.721.066v10.421H4V19h6.148a2.637 2.637 0 012.377 1.747l2.686 8.727c.134.434.351.434.484 0l2.686-8.727A2.636 2.636 0 0120.757 19H26.9v17.909h-5.515V26.488a.364.364 0 00-.722-.059v-.001zm20.613-.315v.009l-.011.024-4.508 9.6A2.215 2.215 0 0135 36.907h-5.52V19H35v10.416a.37.37 0 00.721.102l4.392-9.356A2.213 2.213 0 0141.9 19h5.519v17.909H41.9V26.264a.332.332 0 00-.621-.151h-.003zm17.019.105c-4.692 0-8.533-3.185-8.855-7.218h12.489a6.078 6.078 0 015.963 7.218h-9.597zm-8.119.913v9.87H55.7v-5.849h6.255a6.117 6.117 0 005.712-4.02H50.176z" fill="#fff"/></svg>