<svg width="18" height="14" viewBox="0 0 18 14" fill="none" xmlns="http://www.w3.org/2000/svg">
<path fill-rule="evenodd" clip-rule="evenodd" d="M1.05764 5.30764C1.1157 5.24944 1.18467 5.20326 1.2606 5.17175C1.33653 5.14024 1.41793 5.12402 1.50014 5.12402C1.58235 5.12402 1.66375 5.14024 1.73968 5.17175C1.81561 5.20326 1.88458 5.24944 1.94264 5.30764L9.00014 12.3664L16.0576 5.30764C16.175 5.19028 16.3342 5.12435 16.5001 5.12435C16.6661 5.12435 16.8253 5.19028 16.9426 5.30764C17.06 5.425 17.1259 5.58417 17.1259 5.75014C17.1259 5.91611 17.06 6.07528 16.9426 6.19264L9.44264 13.6926C9.38458 13.7508 9.31561 13.797 9.23968 13.8285C9.16375 13.86 9.08235 13.8763 9.00014 13.8763C8.91793 13.8763 8.83653 13.86 8.7606 13.8285C8.68467 13.797 8.6157 13.7508 8.55764 13.6926L1.05764 6.19264C0.999437 6.13458 0.953258 6.06561 0.92175 5.98968C0.890242 5.91375 0.874023 5.83235 0.874023 5.75014C0.874023 5.66793 0.890242 5.58653 0.92175 5.5106C0.953258 5.43467 0.999437 5.3657 1.05764 5.30764Z" fill="#A89365"/>
<path fill-rule="evenodd" clip-rule="evenodd" d="M1.05764 0.307641C1.1157 0.249437 1.18467 0.203258 1.2606 0.17175C1.33653 0.140242 1.41793 0.124023 1.50014 0.124023C1.58235 0.124023 1.66375 0.140242 1.73968 0.17175C1.81561 0.203258 1.88458 0.249437 1.94264 0.307641L9.00014 7.36639L16.0576 0.307641C16.1157 0.249531 16.1847 0.203436 16.2607 0.171987C16.3366 0.140538 16.418 0.124351 16.5001 0.124351C16.5823 0.124351 16.6637 0.140538 16.7396 0.171987C16.8155 0.203436 16.8845 0.249531 16.9426 0.307641C17.0007 0.365751 17.0468 0.434737 17.0783 0.510661C17.1097 0.586586 17.1259 0.667961 17.1259 0.750141C17.1259 0.832321 17.1097 0.913696 17.0783 0.98962C17.0468 1.06554 17.0007 1.13453 16.9426 1.19264L9.44264 8.69264C9.38458 8.75084 9.31561 8.79702 9.23968 8.82853C9.16375 8.86004 9.08235 8.87626 9.00014 8.87626C8.91793 8.87626 8.83653 8.86004 8.7606 8.82853C8.68467 8.79702 8.6157 8.75084 8.55764 8.69264L1.05764 1.19264C0.999437 1.13458 0.953258 1.06561 0.92175 0.989683C0.890242 0.913751 0.874023 0.83235 0.874023 0.750141C0.874023 0.667932 0.890242 0.58653 0.92175 0.510599C0.953258 0.434667 0.999437 0.365698 1.05764 0.307641Z" fill="#A89365"/>
</svg>
