<svg width="80" height="80" fill="none" xmlns="http://www.w3.org/2000/svg"><path d="M12 54H6V16h68v38h-5m-47-6a3 3 0 10-6 0" stroke="#A89365" stroke-width="2" stroke-linecap="round" stroke-linejoin="round"/><path d="M12 51c0-.796.304-1.559.846-2.121A2.836 2.836 0 0114.89 48h7.222c.766 0 1.501.316 2.043.879A3.06 3.06 0 0125 51v15H12V51zm-3 5.714c0-.19.079-.37.22-.505A.77.77 0 019.75 56h1.5a.77.77 0 01.53.21c.141.133.22.315.22.504V66H9v-9.286z" stroke="#A89365" stroke-width="2" stroke-linecap="round" stroke-linejoin="round"/><path d="M25 56.714c0-.19.079-.37.22-.505a.77.77 0 01.53-.209h1.5a.77.77 0 01.53.21c.141.133.22.315.22.504V66h-3v-9.286zM43 48a3 3 0 10-6 0m-3 3c0-.796.304-1.559.846-2.121A2.836 2.836 0 0136.89 48h7.222c.766 0 1.501.316 2.043.879A3.06 3.06 0 0147 51v15H34V51zm-3 5.714c0-.19.079-.37.22-.505a.77.77 0 01.53-.209h1.5a.77.77 0 01.53.21c.141.133.22.315.22.504V66h-3v-9.286z" stroke="#A89365" stroke-width="2" stroke-linecap="round" stroke-linejoin="round"/><path d="M47 56.714c0-.19.079-.37.22-.505a.77.77 0 01.53-.209h1.5a.77.77 0 01.53.21c.141.133.22.315.22.504V66h-3v-9.286zM65 48a3 3 0 10-6 0m-3 3c0-.796.304-1.559.846-2.121A2.836 2.836 0 0158.89 48h7.222c.766 0 1.501.316 2.043.879A3.06 3.06 0 0169 51v15H56V51zm-3 5.714c0-.19.079-.37.22-.505a.77.77 0 01.53-.209h1.5a.77.77 0 01.53.21c.141.133.22.315.22.504V66h-3v-9.286z" stroke="#A89365" stroke-width="2" stroke-linecap="round" stroke-linejoin="round"/><path d="M69 56.714c0-.19.079-.37.22-.505a.77.77 0 01.53-.209h1.5a.77.77 0 01.53.21c.141.133.22.315.22.504V66h-3v-9.286zM6 66h68M26 54h7m15 0h7" stroke="#A89365" stroke-width="2" stroke-linecap="round" stroke-linejoin="round"/></svg>