<svg width="81" height="80" fill="none" xmlns="http://www.w3.org/2000/svg"><path d="M32.8 17h-24" stroke="#A89365" stroke-width="2" stroke-linecap="round" stroke-linejoin="round"/><path d="M14.8 43h-6v5.106h6V43z" stroke="#A89365" stroke-width="2"/><path d="M8.8 17v49m24-49s-1.193 20.094-18.5 26c11.456-11.172 10.287-26 10.287-26M16.8 17s.63 12.343-5 25.951m3 5.049s1.242 11.205 4 15" stroke="#A89365" stroke-width="2" stroke-linecap="round" stroke-linejoin="round"/><path d="M8.804 65a1 1 0 00-.008 2l.008-2zM8.8 66l-.003 1h.09l.232-.005a25.5 25.5 0 003.594-.376c2.128-.38 4.858-1.17 6.755-2.875l-1.336-1.488c-1.47 1.321-3.74 2.031-5.77 2.394a23.486 23.486 0 01-3.298.346 12.706 12.706 0 01-.248.004h-.013L8.8 66z" fill="#A89365"/><path d="M48.8 17h24" stroke="#A89365" stroke-width="2" stroke-linecap="round" stroke-linejoin="round"/><path d="M66.8 43h6v5.106h-6V43z" stroke="#A89365" stroke-width="2"/><path d="M72.8 17v49m-24-49s1.194 20.094 18.5 26C55.844 31.828 57.014 17 57.014 17m7.786 0s-.63 12.343 5 25.951M66.8 48s-1.242 11.205-4 15" stroke="#A89365" stroke-width="2" stroke-linecap="round" stroke-linejoin="round"/><path d="M72.796 65a1 1 0 01.008 2l-.008-2zm.004 1l.003 1h-.089l-.233-.005a25.497 25.497 0 01-3.594-.376c-2.128-.38-4.858-1.17-6.755-2.875l1.336-1.488c1.47 1.321 3.74 2.031 5.77 2.394a23.486 23.486 0 003.298.346 12.7 12.7 0 00.248.004h.013l.003 1zm-32-57.732c.745 0 1.472-.117 2.163-.348a6.358 6.358 0 001.829-.961c.47-.356.874-.77 1.203-1.227h-10.39c.329.456.734.87 1.203 1.227a6.343 6.343 0 001.83.961c.69.23 1.417.348 2.162.348zm0 1.732a8.94 8.94 0 01-2.845-.458 8.341 8.341 0 01-2.406-1.264C34.102 7.181 33.126 5.662 32.8 4h16c-.326 1.662-1.302 3.18-2.75 4.278a8.36 8.36 0 01-2.405 1.264A8.945 8.945 0 0140.8 10z" fill="#A89365"/><path d="M34.187 10L30.8 13.082M47.413 10l3.387 3.082M38.032 11l-1.694 3.596M42.983 11l.565 3.596" stroke="#A89365" stroke-width="2"/></svg>