<svg width="81" height="80" fill="none" xmlns="http://www.w3.org/2000/svg"><path d="M16.767 37.34v27.867H64V37.34" stroke="#A89365" stroke-width="2" stroke-linecap="round" stroke-linejoin="round"/><path d="M40.367 15.34L71.2 37.64v3.933L40.367 21.907l-30.833 19.7V37.64l10.5-7.6 20.333-14.7zm0 0L26.6 25.306V19.94h-6.566v10.133L40.367 15.34z" stroke="#A89365" stroke-width="2" stroke-linecap="round" stroke-linejoin="round"/><path d="M19.367 16.006h7.866c.367 0 .667.3.667.667v2.633c0 .367-.3.667-.666.667h-7.867a.669.669 0 01-.667-.667v-2.633c.034-.367.3-.667.667-.667z" stroke="#A89365" stroke-width="2" stroke-linecap="round" stroke-linejoin="round"/><path d="M53.834 50.44a.644.644 0 01-.933 0c-7.067-6.567-18-6.567-25.034 0a.71.71 0 01-.933 0 .606.606 0 010-.9c7.567-7.067 19.333-7.067 26.9 0 .233.233.233.633 0 .9zm-3.5 2.566c.267.234.267.634.033.9l-.033.034a.644.644 0 01-.933 0 13.479 13.479 0 00-18.067 0 .71.71 0 01-.933 0c-.267-.234-.267-.634 0-.9l.033-.034c5.6-5.166 14.267-5.166 19.9 0zm-3.467 4.4c.234-.233.267-.633.034-.866l-.034-.034c-3.7-3.233-9.233-3.233-12.966 0a.595.595 0 00-.034.867l.034.033a.675.675 0 00.933.034 8.538 8.538 0 0111.1 0c.267.233.667.2.933-.034z" fill="#A89365"/><path d="M53.834 50.44a.644.644 0 01-.933 0c-7.067-6.567-18-6.567-25.034 0a.71.71 0 01-.933 0 .606.606 0 010-.9c7.567-7.067 19.333-7.067 26.9 0 .233.233.233.633 0 .9zm-3.5 2.566c.267.234.267.634.033.9l-.033.034a.644.644 0 01-.933 0 13.479 13.479 0 00-18.067 0 .71.71 0 01-.933 0c-.267-.234-.267-.634 0-.9l.033-.034c5.6-5.166 14.267-5.166 19.9 0zm-3.467 4.4c.234-.233.267-.633.034-.866l-.034-.034c-3.7-3.233-9.233-3.233-12.966 0a.595.595 0 00-.034.867l.034.033a.675.675 0 00.933.034 8.538 8.538 0 0111.1 0c.267.233.667.2.933-.034zm-30.1-20.066H64m-23.633-4.267a2.633 2.633 0 100-5.266 2.633 2.633 0 000 5.266z" stroke="#A89365" stroke-width="2" stroke-linecap="round" stroke-linejoin="round"/></svg>