<svg width="80" height="80" fill="none" xmlns="http://www.w3.org/2000/svg"><path d="M57 36H23v14h34V36z" stroke="#A89365" stroke-width="2" stroke-miterlimit="10" stroke-linecap="round" stroke-linejoin="round"/><path d="M48 39H32v3h16v-3zm-20.5 3a1.5 1.5 0 100-3 1.5 1.5 0 000 3zm25 0a1.5 1.5 0 100-3 1.5 1.5 0 000 3z" stroke="#A89365" stroke-width="2" stroke-miterlimit="10" stroke-linecap="round" stroke-linejoin="round"/><path d="M35 46h-5v1h5v-1zm6 0h-5v1h5v-1zm6 0h-5v1h5v-1zm2 1a1 1 0 100-2 1 1 0 000 2z" fill="#A89365"/><path d="M57 53H23v12h34V53z" stroke="#A89365" stroke-width="2" stroke-miterlimit="10" stroke-linecap="round" stroke-linejoin="round"/><path d="M29 62a3 3 0 100-6 3 3 0 000 6zm11.5-2a1.5 1.5 0 100-3 1.5 1.5 0 000 3zM72 15H60v50h12V15z" stroke="#A89365" stroke-width="2" stroke-miterlimit="10" stroke-linecap="round" stroke-linejoin="round"/><path d="M66.5 62a4.5 4.5 0 100-9 4.5 4.5 0 000 9zM66 30a2 2 0 100-4 2 2 0 000 4zm0-9a2 2 0 100-4 2 2 0 000 4z" stroke="#A89365" stroke-width="2" stroke-miterlimit="10" stroke-linecap="round" stroke-linejoin="round"/><path d="M68.602 57.581a2.072 2.072 0 01-.602 1.42 1.969 1.969 0 01-1.398.58M66.5 49a4.5 4.5 0 100-9 4.5 4.5 0 000 9z" stroke="#A89365" stroke-width="2" stroke-miterlimit="10" stroke-linecap="round" stroke-linejoin="round"/><path d="M66.5 58a.5.5 0 100-1 .5.5 0 000 1z" fill="#A89365"/><path d="M51 62a3 3 0 100-6 3 3 0 000 6zM20 15H8v50h12V15z" stroke="#A89365" stroke-width="2" stroke-miterlimit="10" stroke-linecap="round" stroke-linejoin="round"/><path d="M13.5 62a4.5 4.5 0 100-9 4.5 4.5 0 000 9zm.5-32a2 2 0 100-4 2 2 0 000 4zm0-8a2 2 0 100-4 2 2 0 000 4z" stroke="#A89365" stroke-width="2" stroke-miterlimit="10" stroke-linecap="round" stroke-linejoin="round"/><path d="M15.602 57.581a2.071 2.071 0 01-.602 1.42 1.968 1.968 0 01-1.398.58M13.5 50a4.5 4.5 0 100-9 4.5 4.5 0 000 9z" stroke="#A89365" stroke-width="2" stroke-miterlimit="10" stroke-linecap="round" stroke-linejoin="round"/><path d="M13.5 58a.5.5 0 100-1 .5.5 0 000 1z" fill="#A89365"/></svg>