<svg width="80" height="80" viewBox="0 0 80 80" fill="none" xmlns="http://www.w3.org/2000/svg">
<path d="M57 36H23V50H57V36Z" stroke="#A89365" stroke-width="2" stroke-miterlimit="10" stroke-linecap="round" stroke-linejoin="round"/>
<path d="M48 39H32V42H48V39Z" stroke="#A89365" stroke-width="2" stroke-miterlimit="10" stroke-linecap="round" stroke-linejoin="round"/>
<path d="M27.5 42C28.3284 42 29 41.3284 29 40.5C29 39.6716 28.3284 39 27.5 39C26.6716 39 26 39.6716 26 40.5C26 41.3284 26.6716 42 27.5 42Z" stroke="#A89365" stroke-width="2" stroke-miterlimit="10" stroke-linecap="round" stroke-linejoin="round"/>
<path d="M52.5 42C53.3284 42 54 41.3284 54 40.5C54 39.6716 53.3284 39 52.5 39C51.6716 39 51 39.6716 51 40.5C51 41.3284 51.6716 42 52.5 42Z" stroke="#A89365" stroke-width="2" stroke-miterlimit="10" stroke-linecap="round" stroke-linejoin="round"/>
<path d="M35 46H30V47H35V46Z" fill="#A89365"/>
<path d="M41 46H36V47H41V46Z" fill="#A89365"/>
<path d="M47 46H42V47H47V46Z" fill="#A89365"/>
<path d="M49 47C49.5523 47 50 46.5523 50 46C50 45.4477 49.5523 45 49 45C48.4477 45 48 45.4477 48 46C48 46.5523 48.4477 47 49 47Z" fill="#A89365"/>
<path d="M57 53H23V65H57V53Z" stroke="#A89365" stroke-width="2" stroke-miterlimit="10" stroke-linecap="round" stroke-linejoin="round"/>
<path d="M29 62C30.6569 62 32 60.6569 32 59C32 57.3431 30.6569 56 29 56C27.3431 56 26 57.3431 26 59C26 60.6569 27.3431 62 29 62Z" stroke="#A89365" stroke-width="2" stroke-miterlimit="10" stroke-linecap="round" stroke-linejoin="round"/>
<path d="M40.5 60C41.3284 60 42 59.3284 42 58.5C42 57.6716 41.3284 57 40.5 57C39.6716 57 39 57.6716 39 58.5C39 59.3284 39.6716 60 40.5 60Z" stroke="#A89365" stroke-width="2" stroke-miterlimit="10" stroke-linecap="round" stroke-linejoin="round"/>
<path d="M72 15H60V65H72V15Z" stroke="#A89365" stroke-width="2" stroke-miterlimit="10" stroke-linecap="round" stroke-linejoin="round"/>
<path d="M66.5 62C68.9853 62 71 59.9853 71 57.5C71 55.0147 68.9853 53 66.5 53C64.0147 53 62 55.0147 62 57.5C62 59.9853 64.0147 62 66.5 62Z" stroke="#A89365" stroke-width="2" stroke-miterlimit="10" stroke-linecap="round" stroke-linejoin="round"/>
<path d="M66 30C67.1046 30 68 29.1046 68 28C68 26.8954 67.1046 26 66 26C64.8954 26 64 26.8954 64 28C64 29.1046 64.8954 30 66 30Z" stroke="#A89365" stroke-width="2" stroke-miterlimit="10" stroke-linecap="round" stroke-linejoin="round"/>
<path d="M66 21C67.1046 21 68 20.1046 68 19C68 17.8954 67.1046 17 66 17C64.8954 17 64 17.8954 64 19C64 20.1046 64.8954 21 66 21Z" stroke="#A89365" stroke-width="2" stroke-miterlimit="10" stroke-linecap="round" stroke-linejoin="round"/>
<path d="M68.6018 57.5811C68.59 58.1167 68.374 58.6262 68 59.0002C67.626 59.3741 67.124 59.5827 66.6018 59.5811" stroke="#A89365" stroke-width="2" stroke-miterlimit="10" stroke-linecap="round" stroke-linejoin="round"/>
<path d="M66.5 49C68.9853 49 71 46.9853 71 44.5C71 42.0147 68.9853 40 66.5 40C64.0147 40 62 42.0147 62 44.5C62 46.9853 64.0147 49 66.5 49Z" stroke="#A89365" stroke-width="2" stroke-miterlimit="10" stroke-linecap="round" stroke-linejoin="round"/>
<path d="M66.5 58C66.7761 58 67 57.7761 67 57.5C67 57.2239 66.7761 57 66.5 57C66.2239 57 66 57.2239 66 57.5C66 57.7761 66.2239 58 66.5 58Z" fill="#A89365"/>
<path d="M51 62C52.6569 62 54 60.6569 54 59C54 57.3431 52.6569 56 51 56C49.3431 56 48 57.3431 48 59C48 60.6569 49.3431 62 51 62Z" stroke="#A89365" stroke-width="2" stroke-miterlimit="10" stroke-linecap="round" stroke-linejoin="round"/>
<path d="M20 15H8V65H20V15Z" stroke="#A89365" stroke-width="2" stroke-miterlimit="10" stroke-linecap="round" stroke-linejoin="round"/>
<path d="M13.5 62C15.9853 62 18 59.9853 18 57.5C18 55.0147 15.9853 53 13.5 53C11.0147 53 9 55.0147 9 57.5C9 59.9853 11.0147 62 13.5 62Z" stroke="#A89365" stroke-width="2" stroke-miterlimit="10" stroke-linecap="round" stroke-linejoin="round"/>
<path d="M14 30C15.1046 30 16 29.1046 16 28C16 26.8954 15.1046 26 14 26C12.8954 26 12 26.8954 12 28C12 29.1046 12.8954 30 14 30Z" stroke="#A89365" stroke-width="2" stroke-miterlimit="10" stroke-linecap="round" stroke-linejoin="round"/>
<path d="M14 22C15.1046 22 16 21.1046 16 20C16 18.8954 15.1046 18 14 18C12.8954 18 12 18.8954 12 20C12 21.1046 12.8954 22 14 22Z" stroke="#A89365" stroke-width="2" stroke-miterlimit="10" stroke-linecap="round" stroke-linejoin="round"/>
<path d="M15.6018 57.581C15.59 58.1166 15.374 58.6262 15 59.0001C14.626 59.3741 14.124 59.5826 13.6018 59.581" stroke="#A89365" stroke-width="2" stroke-miterlimit="10" stroke-linecap="round" stroke-linejoin="round"/>
<path d="M13.5 50C15.9853 50 18 47.9853 18 45.5C18 43.0147 15.9853 41 13.5 41C11.0147 41 9 43.0147 9 45.5C9 47.9853 11.0147 50 13.5 50Z" stroke="#A89365" stroke-width="2" stroke-miterlimit="10" stroke-linecap="round" stroke-linejoin="round"/>
<path d="M13.5 58C13.7761 58 14 57.7761 14 57.5C14 57.2239 13.7761 57 13.5 57C13.2239 57 13 57.2239 13 57.5C13 57.7761 13.2239 58 13.5 58Z" fill="#A89365"/>
</svg>
