<svg width="81" height="80" fill="none" xmlns="http://www.w3.org/2000/svg"><path d="M16.933 37.34v27.867h47.2V37.34" stroke="#A89365" stroke-width="2" stroke-linecap="round" stroke-linejoin="round"/><path d="M40.533 15.373L20.2 30.073m20.333-14.7l30.8 22.3v3.934l-30.8-19.667-30.8 19.667v-3.934l10.5-7.6 20.3-14.7zm0 0L26.766 25.34v-5.366h-6.533v10.1l20.3-14.7z" stroke="#A89365" stroke-width="2" stroke-linecap="round" stroke-linejoin="round"/><path d="M19.567 16.04h7.866c.367 0 .667.3.667.667v2.633c0 .367-.3.667-.667.667h-7.866a.669.669 0 01-.667-.667v-2.633c0-.367.3-.667.667-.667zm-2.634 21.3h47.2m-23.6-4.233a2.633 2.633 0 100-5.267 2.633 2.633 0 000 5.267z" stroke="#A89365" stroke-width="2" stroke-linecap="round" stroke-linejoin="round"/><path d="M38.399 53.122a2.01 2.01 0 01-2.121 1.874 2.01 2.01 0 01-1.874-2.122A2.012 2.012 0 0136.419 51a2.054 2.054 0 011.98 2.122z" stroke="#A89365" stroke-width="2" stroke-miterlimit="10"/><path d="M29.4 40a1 1 0 00-1 1v4a1 1 0 001 1h3.009a.68.68 0 00.564-.329c.169-.263.163-.613-.055-.837l-.826-.844c-.234-.24-.614-.27-.95-.27-.548.034-1.062-.422-1.097-1.018a1.055 1.055 0 01.995-1.123 1.08 1.08 0 011.131 1.017v.036c0 .387-.004.838.267 1.114l.684.701c.25.255.657.257.956.063a.686.686 0 00.322-.564V41a1 1 0 00-1-1h-4zm0 22a1 1 0 01-1-1v-4a1 1 0 011-1h3.038c.23 0 .435.13.56.324.17.262.164.614-.056.837l-.826.836c-.238.24-.62.27-.958.27-.586-.034-1.069.419-1.103 1.012-.035.593.414 1.116 1 1.151.586.035 1.069-.418 1.103-1.011v-.035c0-.384-.004-.834.266-1.107l.693-.7c.25-.254.656-.256.955-.063a.692.692 0 01.328.57V61a1 1 0 01-1 1h-4zm22-22a1 1 0 011 1v4a1 1 0 01-1 1h-3.044a.68.68 0 01-.564-.329c-.169-.263-.163-.613.055-.837l.826-.844c.234-.24.614-.27.95-.27.582.034 1.062-.422 1.097-1.018a1.055 1.055 0 00-.995-1.123c-.583-.035-1.063.421-1.097 1.017v.036c0 .387.004.838-.266 1.114l-.699.715a.715.715 0 01-.926.068c-.196-.137-.337-.361-.337-.6V41a1 1 0 011-1h4zm-.006 21.994a1 1 0 001.006-1V57a1 1 0 00-1-1h-3.047a.676.676 0 00-.56.325c-.169.262-.163.612.055.835l.824.838c.235.24.614.27.95.27.583-.035 1.063.418 1.098 1.011a1.051 1.051 0 01-.995 1.116c-.583.035-1.063-.418-1.097-1.011v-.035c0-.384.004-.833-.265-1.107l-.7-.713a.715.715 0 00-.924-.068c-.198.137-.34.362-.34.602v2.908a1 1 0 00.995 1l4 .023z" fill="#A89365"/><path d="M44.396 53.122a2.01 2.01 0 01-2.12 1.874 2.01 2.01 0 01-1.872-2.122A2.011 2.011 0 0142.418 51c1.165.035 2.049.99 1.978 2.122z" stroke="#A89365" stroke-width="2" stroke-miterlimit="10"/><path d="M37.4 51v-6m0 0h6m0 0v6" stroke="#A89365" stroke-width="2" stroke-miterlimit="10" stroke-linecap="round" stroke-linejoin="round"/><path stroke="#A89365" d="M37.4 48.5h6"/></svg>